<svg xmlns="http://www.w3.org/2000/svg" viewBox="0 0 64 64" fill="none">
  <defs>
    <linearGradient id="frame" x1="10" y1="7" x2="56" y2="58" gradientUnits="userSpaceOnUse">
      <stop stop-color="#f59e0b"/>
      <stop offset="1" stop-color="#22d3ee"/>
    </linearGradient>
    <radialGradient id="glow" cx="0" cy="0" r="1" gradientUnits="userSpaceOnUse" gradientTransform="translate(37 28) rotate(129) scale(31)">
      <stop stop-color="#f59e0b" stop-opacity=".36"/>
      <stop offset="1" stop-color="#020617" stop-opacity="0"/>
    </radialGradient>
  </defs>
  <rect x="3" y="3" width="58" height="58" rx="15" fill="#0b0f19"/>
  <rect x="3" y="3" width="58" height="58" rx="15" fill="url(#glow)"/>
  <rect x="5.5" y="5.5" width="53" height="53" rx="13" stroke="url(#frame)" stroke-width="3"/>
  <path d="M16 18h27c4.4 0 8 3.6 8 8v19H24.8c-4.9 0-8.8-3.9-8.8-8.8V18Z" fill="#111827" stroke="#f8fafc" stroke-opacity=".16" stroke-width="1.5"/>
  <path d="M18 21h8v22h-8" stroke="#f59e0b" stroke-opacity=".86" stroke-width="2.6" stroke-linecap="round"/>
  <path d="M48 23H36.5C30.4 23 25.5 27.9 25.5 34s4.9 11 11 11h12" stroke="#22d3ee" stroke-opacity=".82" stroke-width="2.6" stroke-linecap="round"/>
  <path d="M34 24.5c-4.6 1.5-7.8 5.7-7.8 10.7 0 1.7.4 3.2 1.1 4.6" stroke="#f59e0b" stroke-width="2.4" stroke-linecap="round"/>
  <circle cx="36.5" cy="34.5" r="7.2" stroke="#f8fafc" stroke-opacity=".72" stroke-width="2"/>
  <circle cx="36.5" cy="34.5" r="2.7" fill="#f59e0b"/>
  <path d="M19 25.5h5M19 31.5h5M19 37.5h5" stroke="#f8fafc" stroke-opacity=".34" stroke-width="2" stroke-linecap="round"/>
  <path d="M43 18l6.2-5.2M49 45l5.3 5" stroke="#22d3ee" stroke-opacity=".55" stroke-width="2" stroke-linecap="round"/>
</svg>
