<svg xmlns="http://www.w3.org/2000/svg" viewBox="0 0 32 32">
  <rect width="32" height="32" rx="4" fill="#111111"/>
  <rect x="2" y="2" width="28" height="28" rx="3" fill="none" stroke="#f59e0b" stroke-width="2"/>
  <rect x="2" y="2" width="6" height="6" fill="#111111"/>
  <rect x="24" y="2" width="6" height="6" fill="#111111"/>
  <rect x="2" y="24" width="6" height="6" fill="#111111"/>
  <rect x="24" y="24" width="6" height="6" fill="#111111"/>
  <rect x="2" y="6" width="4" height="5" rx="1" fill="#f59e0b" opacity="0.7"/>
  <rect x="2" y="14" width="4" height="5" rx="1" fill="#f59e0b" opacity="0.7"/>
  <rect x="2" y="21" width="4" height="5" rx="1" fill="#f59e0b" opacity="0.7"/>
  <rect x="26" y="6" width="4" height="5" rx="1" fill="#f59e0b" opacity="0.7"/>
  <rect x="26" y="14" width="4" height="5" rx="1" fill="#f59e0b" opacity="0.7"/>
  <rect x="26" y="21" width="4" height="5" rx="1" fill="#f59e0b" opacity="0.7"/>
  <circle cx="16" cy="16" r="8" fill="#f59e0b" opacity="0.1"/>
  <circle cx="16" cy="16" r="8" fill="none" stroke="#f59e0b" stroke-width="1.5"/>
  <circle cx="16" cy="16" r="4" fill="none" stroke="#f59e0b" stroke-width="1" opacity="0.6"/>
  <circle cx="16" cy="16" r="2" fill="#f59e0b"/>
</svg>
