<svg xmlns="http://www.w3.org/2000/svg" viewBox="0 0 1200 675" fill="none">
  <defs>
    <linearGradient id="bg" x1="0" y1="0" x2="1200" y2="675" gradientUnits="userSpaceOnUse">
      <stop stop-color="#080b12"/>
      <stop offset=".56" stop-color="#111827"/>
      <stop offset="1" stop-color="#0f172a"/>
    </linearGradient>
    <linearGradient id="accent" x1="296" y1="126" x2="903" y2="552" gradientUnits="userSpaceOnUse">
      <stop stop-color="#f59e0b"/>
      <stop offset="1" stop-color="#22d3ee"/>
    </linearGradient>
    <radialGradient id="glow" cx="0" cy="0" r="1" gradientUnits="userSpaceOnUse" gradientTransform="translate(676 295) rotate(141) scale(360 275)">
      <stop stop-color="#f59e0b" stop-opacity=".18"/>
      <stop offset="1" stop-color="#020617" stop-opacity="0"/>
    </radialGradient>
    <pattern id="grid" width="48" height="48" patternUnits="userSpaceOnUse">
      <path d="M48 0H0v48" stroke="#f8fafc" stroke-opacity=".035"/>
    </pattern>
  </defs>

  <rect width="1200" height="675" rx="26" fill="url(#bg)"/>
  <rect width="1200" height="675" fill="url(#grid)"/>
  <rect width="1200" height="675" fill="url(#glow)"/>

  <rect x="118" y="82" width="964" height="511" rx="28" fill="#020617" fill-opacity=".32" stroke="#f8fafc" stroke-opacity=".08"/>
  <path d="M178 156h844M178 519h844" stroke="#f8fafc" stroke-opacity=".08"/>
  <path d="M244 118v438M956 118v438" stroke="#f8fafc" stroke-opacity=".06"/>

  <g opacity=".42">
    <rect x="168" y="148" width="18" height="32" rx="5" fill="#f59e0b"/>
    <rect x="168" y="206" width="18" height="32" rx="5" fill="#f59e0b"/>
    <rect x="168" y="264" width="18" height="32" rx="5" fill="#f59e0b"/>
    <rect x="168" y="322" width="18" height="32" rx="5" fill="#f59e0b"/>
    <rect x="168" y="380" width="18" height="32" rx="5" fill="#f59e0b"/>
    <rect x="168" y="438" width="18" height="32" rx="5" fill="#f59e0b"/>
    <rect x="1014" y="148" width="18" height="32" rx="5" fill="#22d3ee"/>
    <rect x="1014" y="206" width="18" height="32" rx="5" fill="#22d3ee"/>
    <rect x="1014" y="264" width="18" height="32" rx="5" fill="#22d3ee"/>
    <rect x="1014" y="322" width="18" height="32" rx="5" fill="#22d3ee"/>
    <rect x="1014" y="380" width="18" height="32" rx="5" fill="#22d3ee"/>
    <rect x="1014" y="438" width="18" height="32" rx="5" fill="#22d3ee"/>
  </g>

  <g transform="translate(462 184)">
    <rect x="0" y="0" width="276" height="276" rx="46" fill="#0b0f19"/>
    <circle cx="138" cy="138" r="92" stroke="url(#accent)" stroke-width="12"/>
    <circle cx="138" cy="138" r="56" stroke="#22d3ee" stroke-opacity=".88" stroke-width="10"/>
    <circle cx="138" cy="138" r="26" stroke="#f8fafc" stroke-opacity=".75" stroke-width="7"/>
    <circle cx="138" cy="138" r="11" fill="#f59e0b"/>
  </g>

  <text x="600" y="516" text-anchor="middle" fill="#f8fafc" font-family="Inter, ui-sans-serif, system-ui, -apple-system, BlinkMacSystemFont, 'Segoe UI', sans-serif" font-size="36" font-weight="700" letter-spacing=".02em">Story Shot Video</text>
  <text x="600" y="554" text-anchor="middle" fill="#94a3b8" font-family="Inter, ui-sans-serif, system-ui, -apple-system, BlinkMacSystemFont, 'Segoe UI', sans-serif" font-size="17" font-weight="500">Scene frame placeholder</text>
</svg>
