<svg xmlns="http://www.w3.org/2000/svg" viewBox="0 0 1200 675" fill="none">
  <defs>
    <linearGradient id="bg" x1="0" y1="0" x2="1200" y2="675" gradientUnits="userSpaceOnUse">
      <stop stop-color="#080b12"/>
      <stop offset=".56" stop-color="#111827"/>
      <stop offset="1" stop-color="#0f172a"/>
    </linearGradient>
    <linearGradient id="accent" x1="296" y1="126" x2="903" y2="552" gradientUnits="userSpaceOnUse">
      <stop stop-color="#f59e0b"/>
      <stop offset="1" stop-color="#22d3ee"/>
    </linearGradient>
    <radialGradient id="glow" cx="0" cy="0" r="1" gradientUnits="userSpaceOnUse" gradientTransform="translate(676 295) rotate(141) scale(360 275)">
      <stop stop-color="#f59e0b" stop-opacity=".18"/>
      <stop offset="1" stop-color="#020617" stop-opacity="0"/>
    </radialGradient>
    <pattern id="grid" width="48" height="48" patternUnits="userSpaceOnUse">
      <path d="M48 0H0v48" stroke="#f8fafc" stroke-opacity=".035"/>
    </pattern>
  </defs>

  <rect width="1200" height="675" rx="26" fill="url(#bg)"/>
  <rect width="1200" height="675" fill="url(#grid)"/>
  <rect width="1200" height="675" fill="url(#glow)"/>

  <rect x="118" y="82" width="964" height="511" rx="28" fill="#020617" fill-opacity=".32" stroke="#f8fafc" stroke-opacity=".08"/>
  <path d="M178 156h844M178 519h844" stroke="#f8fafc" stroke-opacity=".08"/>
  <path d="M244 118v438M956 118v438" stroke="#f8fafc" stroke-opacity=".06"/>

  <g opacity=".42">
    <rect x="168" y="148" width="18" height="32" rx="5" fill="#f59e0b"/>
    <rect x="168" y="206" width="18" height="32" rx="5" fill="#f59e0b"/>
    <rect x="168" y="264" width="18" height="32" rx="5" fill="#f59e0b"/>
    <rect x="168" y="322" width="18" height="32" rx="5" fill="#f59e0b"/>
    <rect x="168" y="380" width="18" height="32" rx="5" fill="#f59e0b"/>
    <rect x="168" y="438" width="18" height="32" rx="5" fill="#f59e0b"/>
    <rect x="1014" y="148" width="18" height="32" rx="5" fill="#22d3ee"/>
    <rect x="1014" y="206" width="18" height="32" rx="5" fill="#22d3ee"/>
    <rect x="1014" y="264" width="18" height="32" rx="5" fill="#22d3ee"/>
    <rect x="1014" y="322" width="18" height="32" rx="5" fill="#22d3ee"/>
    <rect x="1014" y="380" width="18" height="32" rx="5" fill="#22d3ee"/>
    <rect x="1014" y="438" width="18" height="32" rx="5" fill="#22d3ee"/>
  </g>

  <g transform="translate(462 184)">
    <rect x="0" y="0" width="276" height="276" rx="46" fill="#0b0f19"/>
    <rect x="4" y="4" width="268" height="268" rx="42" stroke="url(#accent)" stroke-width="8"/>
    <path d="M62 76h118c19 0 34 15 34 34v82H99c-20 0-37-16-37-37V76Z" fill="#111827" stroke="#f8fafc" stroke-opacity=".15" stroke-width="4"/>
    <path d="M72 90h34v94H72" stroke="#f59e0b" stroke-width="8" stroke-linecap="round"/>
    <path d="M199 99h-50c-26 0-47 21-47 47s21 47 47 47h52" stroke="#22d3ee" stroke-width="8" stroke-linecap="round"/>
    <path d="M139 105c-20 7-34 25-34 47 0 7 2 14 5 20" stroke="#f59e0b" stroke-width="8" stroke-linecap="round"/>
    <circle cx="151" cy="148" r="31" stroke="#f8fafc" stroke-opacity=".72" stroke-width="7"/>
    <circle cx="151" cy="148" r="12" fill="#f59e0b"/>
    <path d="M78 110h21M78 136h21M78 162h21" stroke="#f8fafc" stroke-opacity=".34" stroke-width="7" stroke-linecap="round"/>
  </g>

  <text x="600" y="516" text-anchor="middle" fill="#f8fafc" font-family="Inter, ui-sans-serif, system-ui, -apple-system, BlinkMacSystemFont, 'Segoe UI', sans-serif" font-size="36" font-weight="700" letter-spacing=".02em">Story Shot Studio</text>
  <text x="600" y="554" text-anchor="middle" fill="#94a3b8" font-family="Inter, ui-sans-serif, system-ui, -apple-system, BlinkMacSystemFont, 'Segoe UI', sans-serif" font-size="17" font-weight="500">Scene frame placeholder</text>
</svg>
