<svg xmlns="http://www.w3.org/2000/svg" viewBox="0 0 720 160" fill="none">
  <defs>
    <linearGradient id="sss-lockup-frame" x1="17" y1="11" x2="127" y2="139" gradientUnits="userSpaceOnUse">
      <stop stop-color="#f59e0b"/>
      <stop offset="1" stop-color="#22d3ee"/>
    </linearGradient>
    <linearGradient id="sss-lockup-text" x1="166" y1="48" x2="530" y2="109" gradientUnits="userSpaceOnUse">
      <stop stop-color="#f8fafc"/>
      <stop offset="1" stop-color="#cbd5e1"/>
    </linearGradient>
  </defs>
  <rect x="12" y="12" width="136" height="136" rx="34" fill="#0b0f19"/>
  <rect x="16" y="16" width="128" height="128" rx="30" stroke="url(#sss-lockup-frame)" stroke-width="8"/>
  <path d="M46 51h61c10.5 0 19 8.5 19 19v43H65.7C54.8 113 46 104.2 46 93.3V51Z" fill="#111827" stroke="#f8fafc" stroke-opacity=".15" stroke-width="3"/>
  <path d="M52 59h18v49H52" stroke="#f59e0b" stroke-width="5" stroke-linecap="round"/>
  <path d="M119 63H92.6C79 63 68 74 68 87.6s11 24.6 24.6 24.6h27.2" stroke="#22d3ee" stroke-width="5" stroke-linecap="round"/>
  <path d="M87.5 66c-10.2 3.3-17.7 13-17.7 24.3 0 3.8.8 7.4 2.4 10.6" stroke="#f59e0b" stroke-width="5" stroke-linecap="round"/>
  <circle cx="94" cy="88.5" r="16.4" stroke="#f8fafc" stroke-opacity=".72" stroke-width="4"/>
  <circle cx="94" cy="88.5" r="6.2" fill="#f59e0b"/>
  <path d="M55 70h12M55 84h12M55 98h12" stroke="#f8fafc" stroke-opacity=".34" stroke-width="4" stroke-linecap="round"/>
  <text x="176" y="76" fill="url(#sss-lockup-text)" font-family="Inter, ui-sans-serif, system-ui, -apple-system, BlinkMacSystemFont, 'Segoe UI', sans-serif" font-size="42" font-weight="760" letter-spacing="-.01em">Story Shot Video</text>
  <text x="178" y="111" fill="#94a3b8" font-family="Inter, ui-sans-serif, system-ui, -apple-system, BlinkMacSystemFont, 'Segoe UI', sans-serif" font-size="17" font-weight="560" letter-spacing=".16em">SCRIPT TO SCENE TO MOTION</text>
</svg>
